<svg width="205" height="51" viewBox="0 0 205 51" fill="none" xmlns="http://www.w3.org/2000/svg">
<path d="M21.4683 32.8571C21.457 31.4107 21.0941 29.9918 20.4148 28.7384C19.7356 27.485 18.7631 26.4395 17.5918 25.7034L29.5261 3.71429L26.7365 2L14.5183 24.5017C13.0188 24.1456 11.4593 24.1948 9.98232 24.645C8.50536 25.0951 7.15812 25.9317 6.06384 27.0783C0.0265351 33.2686 0.494169 47.7406 0.516744 48.3543C0.533413 48.797 0.710635 49.2156 1.01125 49.5224C1.31187 49.8292 1.71255 50.0004 2.12927 50H26.3027C26.6411 50 26.971 49.8868 27.2455 49.6764C27.5201 49.466 27.7254 49.1692 27.8325 48.8278C27.9395 48.4865 27.9428 48.118 27.8419 47.7746C27.7409 47.4311 27.5409 47.1302 27.2702 46.9143C21.5618 42.3611 21.4683 32.9497 21.4683 32.8571ZM13.288 27.7091C14.5786 27.7242 15.8141 28.2677 16.7373 29.2266C17.6606 30.1854 18.2005 31.4858 18.2449 32.8571C18.2449 32.9223 18.2481 33.2137 18.2723 33.6611L8.75838 29.1629C9.38507 28.6135 10.1082 28.202 10.8859 27.9525C11.6635 27.7029 12.48 27.6202 13.288 27.7091ZM18.9641 46.5714C17.6752 45.1762 16.8536 43.3691 16.6259 41.4286H13.4008C13.5163 43.253 14.0524 45.0193 14.9618 46.5714H11.3771C10.714 44.3467 10.3105 42.0437 10.1758 39.7143H6.95073C7.05472 42.0367 7.41462 44.3382 8.02306 46.5714H3.72567C3.77566 43.424 4.19331 36.4709 6.63306 31.9091L18.7802 37.652C19.3639 40.8737 20.6081 43.919 22.4246 46.5714H18.9641Z" fill="#36B864"/>
<path d="M39.9505 25V6.5H47.9255C49.4755 6.5 50.7671 6.8 51.8005 7.4C52.8338 8 53.6005 8.775 54.1005 9.725C54.6171 10.675 54.8755 11.6667 54.8755 12.7C54.8755 13.75 54.6171 14.75 54.1005 15.7C53.6005 16.65 52.8338 17.4333 51.8005 18.05C50.7671 18.65 49.4755 18.95 47.9255 18.95H44.2755V25H39.9505ZM47.9005 10.275H44.2755V15.2H47.9005C48.7838 15.2 49.4421 14.9417 49.8755 14.425C50.3088 13.9083 50.5255 13.3417 50.5255 12.725C50.5255 12.1083 50.3088 11.55 49.8755 11.05C49.4421 10.5333 48.7838 10.275 47.9005 10.275ZM56.9612 25V11.75H61.1862V13.75H61.3362C61.4695 13.4 61.6612 13.0583 61.9112 12.725C62.1779 12.375 62.5445 12.0833 63.0112 11.85C63.4779 11.6167 64.0945 11.5 64.8612 11.5C65.2279 11.5 65.5195 11.525 65.7362 11.575C65.9529 11.625 66.0612 11.65 66.0612 11.65V15.875C66.0612 15.875 65.9445 15.85 65.7112 15.8C65.4779 15.75 65.1529 15.725 64.7362 15.725C63.5529 15.725 62.6695 16.0417 62.0862 16.675C61.5195 17.3083 61.2362 18.3417 61.2362 19.775V25H56.9612ZM74.5307 25.25C73.0307 25.25 71.7557 24.9333 70.7057 24.3C69.6557 23.6667 68.8474 22.825 68.2807 21.775C67.7307 20.725 67.4557 19.5917 67.4557 18.375C67.4557 17.1583 67.7307 16.025 68.2807 14.975C68.8474 13.925 69.6557 13.0833 70.7057 12.45C71.7557 11.8167 73.0307 11.5 74.5307 11.5C76.0474 11.5 77.3307 11.8167 78.3807 12.45C79.4307 13.0833 80.2307 13.925 80.7807 14.975C81.3474 16.025 81.6307 17.1583 81.6307 18.375C81.6307 19.5917 81.3474 20.725 80.7807 21.775C80.2307 22.825 79.4307 23.6667 78.3807 24.3C77.3307 24.9333 76.0474 25.25 74.5307 25.25ZM74.5307 21.8C75.4141 21.8 76.0974 21.4667 76.5807 20.8C77.0807 20.1167 77.3307 19.3083 77.3307 18.375C77.3307 17.4417 77.0807 16.6417 76.5807 15.975C76.0974 15.2917 75.4141 14.95 74.5307 14.95C73.6641 14.95 72.9807 15.2917 72.4807 15.975C71.9807 16.6417 71.7307 17.4417 71.7307 18.375C71.7307 19.3083 71.9807 20.1167 72.4807 20.8C72.9807 21.4667 73.6641 21.8 74.5307 21.8Z" fill="#36B864"/>
<path d="M92.9102 25.25C91.3769 25.25 90.0269 24.9833 88.8602 24.45C87.6936 23.9 86.7186 23.175 85.9352 22.275C85.1686 21.3583 84.5852 20.3333 84.1852 19.2C83.8019 18.0667 83.6102 16.9083 83.6102 15.725C83.6102 14.5583 83.8019 13.4083 84.1852 12.275C84.5852 11.1417 85.1686 10.125 85.9352 9.225C86.7186 8.325 87.6936 7.60833 88.8602 7.075C90.0269 6.525 91.3769 6.25 92.9102 6.25C94.2269 6.25 95.3436 6.41667 96.2602 6.75C97.1936 7.06667 97.9686 7.49167 98.5852 8.025C99.2186 8.54167 99.7186 9.09167 100.085 9.675C100.469 10.2417 100.752 10.7833 100.935 11.3C101.119 11.8167 101.235 12.2417 101.285 12.575C101.352 12.9083 101.385 13.075 101.385 13.075H97.1102C97.1102 13.075 97.0602 12.925 96.9602 12.625C96.8769 12.325 96.6936 11.9833 96.4102 11.6C96.1436 11.2 95.7352 10.85 95.1852 10.55C94.6352 10.25 93.8936 10.1 92.9602 10.1C91.8769 10.1 90.9686 10.375 90.2352 10.925C89.5186 11.475 88.9769 12.1833 88.6102 13.05C88.2602 13.9 88.0852 14.7917 88.0852 15.725C88.0852 16.6583 88.2602 17.5583 88.6102 18.425C88.9769 19.2917 89.5186 20 90.2352 20.55C90.9686 21.1 91.8769 21.375 92.9602 21.375C93.8936 21.375 94.6352 21.225 95.1852 20.925C95.7352 20.625 96.1436 20.2833 96.4102 19.9C96.6936 19.5167 96.8769 19.175 96.9602 18.875C97.0602 18.575 97.1102 18.425 97.1102 18.425H101.385C101.385 18.425 101.352 18.5917 101.285 18.925C101.235 19.2417 101.119 19.6667 100.935 20.2C100.752 20.7167 100.469 21.2667 100.085 21.85C99.7186 22.4167 99.2186 22.9667 98.5852 23.5C97.9686 24.0167 97.1936 24.4417 96.2602 24.775C95.3436 25.0917 94.2269 25.25 92.9102 25.25ZM103.866 25V6H108.141V25H103.866ZM117.667 25.25C116.484 25.25 115.459 25.0583 114.592 24.675C113.725 24.275 113 23.75 112.417 23.1C111.85 22.4333 111.425 21.6917 111.142 20.875C110.875 20.0583 110.742 19.2167 110.742 18.35C110.742 17.5167 110.875 16.6917 111.142 15.875C111.409 15.0583 111.817 14.325 112.367 13.675C112.917 13.0083 113.617 12.4833 114.467 12.1C115.334 11.7 116.359 11.5 117.542 11.5C118.809 11.5 119.917 11.775 120.867 12.325C121.834 12.8583 122.584 13.65 123.117 14.7C123.667 15.7333 123.942 16.9917 123.942 18.475V19.475H115.042C115.092 20.1583 115.334 20.7583 115.767 21.275C116.217 21.775 116.85 22.025 117.667 22.025C118.284 22.025 118.75 21.9167 119.067 21.7C119.4 21.4667 119.625 21.2333 119.742 21C119.859 20.7667 119.917 20.65 119.917 20.65H123.842C123.842 20.65 123.8 20.8083 123.717 21.125C123.634 21.425 123.475 21.8083 123.242 22.275C123.009 22.725 122.667 23.1833 122.217 23.65C121.767 24.1 121.167 24.4833 120.417 24.8C119.684 25.1 118.767 25.25 117.667 25.25ZM115.017 17H119.842C119.809 16.2167 119.567 15.625 119.117 15.225C118.684 14.825 118.134 14.625 117.467 14.625C116.817 14.625 116.259 14.825 115.792 15.225C115.342 15.625 115.084 16.2167 115.017 17ZM131.97 11.5C132.837 11.5 133.537 11.6417 134.07 11.925C134.62 12.2083 135.029 12.5 135.295 12.8C135.579 13.0833 135.737 13.2583 135.77 13.325H135.97V11.75H140.245V25H135.97V23.425H135.77C135.737 23.4917 135.579 23.675 135.295 23.975C135.029 24.275 134.62 24.5667 134.07 24.85C133.537 25.1167 132.837 25.25 131.97 25.25C131.004 25.25 130.162 25.0583 129.445 24.675C128.729 24.275 128.129 23.75 127.645 23.1C127.162 22.4333 126.804 21.6917 126.57 20.875C126.337 20.0583 126.22 19.225 126.22 18.375C126.22 17.525 126.337 16.6917 126.57 15.875C126.804 15.0583 127.162 14.325 127.645 13.675C128.129 13.0083 128.729 12.4833 129.445 12.1C130.162 11.7 131.004 11.5 131.97 11.5ZM133.32 14.925C132.704 14.925 132.187 15.1 131.77 15.45C131.354 15.7833 131.045 16.2167 130.845 16.75C130.645 17.2667 130.545 17.8083 130.545 18.375C130.545 18.9417 130.645 19.4917 130.845 20.025C131.045 20.5417 131.354 20.975 131.77 21.325C132.187 21.6583 132.704 21.825 133.32 21.825C133.937 21.825 134.445 21.6583 134.845 21.325C135.262 20.975 135.57 20.5417 135.77 20.025C135.987 19.4917 136.095 18.9417 136.095 18.375C136.095 17.8083 135.987 17.2667 135.77 16.75C135.57 16.2167 135.262 15.7833 134.845 15.45C134.445 15.1 133.937 14.925 133.32 14.925ZM143.045 25V11.75H147.32V13.625H147.445C147.612 13.3583 147.837 13.0583 148.12 12.725C148.42 12.3917 148.812 12.1083 149.295 11.875C149.795 11.625 150.412 11.5 151.145 11.5C152.212 11.5 153.062 11.7417 153.695 12.225C154.345 12.7083 154.812 13.325 155.095 14.075C155.379 14.8083 155.52 15.5667 155.52 16.35V25H151.245V17.15C151.245 16.5833 151.095 16.0833 150.795 15.65C150.495 15.2 150.004 14.975 149.32 14.975C148.57 14.975 148.045 15.225 147.745 15.725C147.462 16.2083 147.32 16.7417 147.32 17.325V25H143.045ZM160.706 10.175C159.989 10.175 159.397 9.94167 158.931 9.475C158.464 9.00833 158.231 8.45833 158.231 7.825C158.231 7.15833 158.464 6.59167 158.931 6.125C159.397 5.65833 159.989 5.425 160.706 5.425C161.422 5.425 162.014 5.65833 162.481 6.125C162.947 6.59167 163.181 7.15833 163.181 7.825C163.181 8.45833 162.947 9.00833 162.481 9.475C162.014 9.94167 161.422 10.175 160.706 10.175ZM158.556 25V11.75H162.831V25H158.556ZM165.872 25V11.75H170.147V13.625H170.272C170.439 13.3583 170.664 13.0583 170.947 12.725C171.247 12.3917 171.639 12.1083 172.122 11.875C172.622 11.625 173.239 11.5 173.972 11.5C175.039 11.5 175.889 11.7417 176.522 12.225C177.172 12.7083 177.639 13.325 177.922 14.075C178.206 14.8083 178.347 15.5667 178.347 16.35V25H174.072V17.15C174.072 16.5833 173.922 16.0833 173.622 15.65C173.322 15.2 172.831 14.975 172.147 14.975C171.397 14.975 170.872 15.225 170.572 15.725C170.289 16.2083 170.147 16.7417 170.147 17.325V25H165.872ZM187.788 30.325C186.538 30.325 185.504 30.1667 184.688 29.85C183.871 29.55 183.221 29.1667 182.738 28.7C182.271 28.25 181.929 27.7917 181.713 27.325C181.496 26.875 181.354 26.4917 181.288 26.175C181.238 25.875 181.213 25.725 181.213 25.725H185.338C185.338 25.725 185.388 25.8333 185.488 26.05C185.604 26.2667 185.829 26.4833 186.163 26.7C186.513 26.9333 187.038 27.05 187.738 27.05C188.638 27.05 189.321 26.7917 189.788 26.275C190.271 25.7583 190.513 25.0417 190.513 24.125V22.75H190.313C190.146 23.0167 189.896 23.3 189.563 23.6C189.246 23.9 188.838 24.1583 188.338 24.375C187.838 24.575 187.238 24.675 186.538 24.675C185.571 24.675 184.721 24.4917 183.988 24.125C183.271 23.7583 182.663 23.2583 182.163 22.625C181.679 21.9917 181.313 21.2833 181.063 20.5C180.829 19.7167 180.713 18.9167 180.713 18.1C180.713 17.2667 180.829 16.4583 181.063 15.675C181.313 14.8917 181.679 14.1917 182.163 13.575C182.663 12.9417 183.271 12.4417 183.988 12.075C184.721 11.6917 185.571 11.5 186.538 11.5C187.238 11.5 187.838 11.6083 188.338 11.825C188.838 12.025 189.254 12.275 189.588 12.575C189.921 12.875 190.163 13.1583 190.313 13.425H190.513V11.75H194.788V24.125C194.788 25.1917 194.538 26.1917 194.038 27.125C193.554 28.075 192.796 28.8417 191.763 29.425C190.746 30.025 189.421 30.325 187.788 30.325ZM187.813 21.35C188.446 21.35 188.971 21.1917 189.388 20.875C189.804 20.5583 190.113 20.15 190.313 19.65C190.529 19.15 190.638 18.6333 190.638 18.1C190.638 17.5333 190.529 17.0083 190.313 16.525C190.113 16.025 189.804 15.6167 189.388 15.3C188.971 14.9833 188.446 14.825 187.813 14.825C187.196 14.825 186.679 14.9833 186.263 15.3C185.846 15.6167 185.529 16.025 185.313 16.525C185.096 17.0083 184.988 17.5333 184.988 18.1C184.988 18.6333 185.096 19.15 185.313 19.65C185.529 20.15 185.846 20.5583 186.263 20.875C186.679 21.1917 187.196 21.35 187.813 21.35Z" fill="#111D15"/>
<path d="M43.2105 47.609C42.5145 47.609 41.9025 47.481 41.3745 47.225C40.8465 46.961 40.4065 46.613 40.0545 46.181C39.7105 45.741 39.4505 45.253 39.2745 44.717C39.0985 44.173 39.0105 43.617 39.0105 43.049C39.0105 42.481 39.0985 41.925 39.2745 41.381C39.4505 40.837 39.7105 40.349 40.0545 39.917C40.4065 39.477 40.8465 39.129 41.3745 38.873C41.9025 38.617 42.5145 38.489 43.2105 38.489C43.7865 38.489 44.2785 38.565 44.6865 38.717C45.1025 38.861 45.4465 39.049 45.7185 39.281C45.9985 39.513 46.2225 39.761 46.3905 40.025C46.5665 40.289 46.6945 40.537 46.7745 40.769C46.8625 41.001 46.9185 41.193 46.9425 41.345C46.9745 41.489 46.9905 41.561 46.9905 41.561H45.8145C45.8145 41.561 45.7985 41.497 45.7665 41.369C45.7345 41.233 45.6705 41.069 45.5745 40.877C45.4785 40.677 45.3345 40.477 45.1425 40.277C44.9505 40.077 44.6985 39.913 44.3865 39.785C44.0745 39.649 43.6865 39.581 43.2225 39.581C42.7185 39.581 42.2785 39.681 41.9025 39.881C41.5265 40.073 41.2105 40.337 40.9545 40.673C40.7065 41.001 40.5185 41.373 40.3905 41.789C40.2705 42.197 40.2105 42.617 40.2105 43.049C40.2105 43.481 40.2705 43.905 40.3905 44.321C40.5185 44.729 40.7065 45.101 40.9545 45.437C41.2105 45.765 41.5265 46.029 41.9025 46.229C42.2785 46.421 42.7185 46.517 43.2225 46.517C43.6865 46.517 44.0745 46.449 44.3865 46.313C44.6985 46.177 44.9505 46.013 45.1425 45.821C45.3345 45.621 45.4785 45.425 45.5745 45.233C45.6705 45.033 45.7345 44.865 45.7665 44.729C45.7985 44.593 45.8145 44.525 45.8145 44.525H46.9905C46.9905 44.525 46.9745 44.601 46.9425 44.753C46.9185 44.897 46.8625 45.089 46.7745 45.329C46.6945 45.561 46.5665 45.809 46.3905 46.073C46.2225 46.329 45.9985 46.577 45.7185 46.817C45.4465 47.049 45.1025 47.241 44.6865 47.393C44.2785 47.537 43.7865 47.609 43.2105 47.609ZM48.6152 47.489L48.6272 38.369H49.7552V47.489H48.6152ZM54.4457 47.609C53.9257 47.609 53.4737 47.517 53.0897 47.333C52.7137 47.141 52.4017 46.885 52.1537 46.565C51.9137 46.245 51.7337 45.893 51.6137 45.509C51.4937 45.117 51.4337 44.717 51.4337 44.309C51.4337 43.909 51.4897 43.513 51.6017 43.121C51.7217 42.729 51.9017 42.373 52.1417 42.053C52.3897 41.733 52.6977 41.481 53.0657 41.297C53.4417 41.105 53.8857 41.009 54.3977 41.009C54.9417 41.009 55.4217 41.133 55.8377 41.381C56.2537 41.629 56.5817 41.997 56.8217 42.485C57.0617 42.973 57.1817 43.585 57.1817 44.321V44.657H52.5857C52.6097 45.017 52.6937 45.349 52.8377 45.653C52.9897 45.949 53.2017 46.189 53.4737 46.373C53.7457 46.549 54.0697 46.637 54.4457 46.637C54.7737 46.637 55.0377 46.585 55.2377 46.481C55.4457 46.369 55.6097 46.241 55.7297 46.097C55.8497 45.953 55.9297 45.829 55.9697 45.725C56.0177 45.613 56.0417 45.557 56.0417 45.557H57.1097C57.1097 45.557 57.0897 45.629 57.0497 45.773C57.0097 45.909 56.9377 46.077 56.8337 46.277C56.7297 46.477 56.5777 46.681 56.3777 46.889C56.1777 47.089 55.9217 47.261 55.6097 47.405C55.2977 47.541 54.9097 47.609 54.4457 47.609ZM52.5977 43.769H56.0657C56.0497 43.353 55.9617 43.017 55.8017 42.761C55.6417 42.497 55.4377 42.301 55.1897 42.173C54.9417 42.045 54.6777 41.981 54.3977 41.981C53.8937 41.981 53.4817 42.145 53.1617 42.473C52.8417 42.793 52.6537 43.225 52.5977 43.769ZM61.4387 41.009C61.8387 41.009 62.1747 41.073 62.4467 41.201C62.7187 41.329 62.9387 41.481 63.1067 41.657C63.2747 41.825 63.4027 41.985 63.4907 42.137H63.5627V41.129H64.7027V47.489H63.5627V46.481H63.4907C63.4027 46.633 63.2747 46.797 63.1067 46.973C62.9387 47.149 62.7187 47.301 62.4467 47.429C62.1747 47.549 61.8387 47.609 61.4387 47.609C60.9587 47.609 60.5387 47.517 60.1787 47.333C59.8187 47.141 59.5187 46.889 59.2787 46.577C59.0387 46.257 58.8587 45.901 58.7387 45.509C58.6187 45.117 58.5587 44.717 58.5587 44.309C58.5587 43.901 58.6187 43.501 58.7387 43.109C58.8587 42.717 59.0387 42.365 59.2787 42.053C59.5187 41.733 59.8187 41.481 60.1787 41.297C60.5387 41.105 60.9587 41.009 61.4387 41.009ZM61.6307 41.981C61.2067 41.981 60.8507 42.097 60.5627 42.329C60.2747 42.553 60.0587 42.841 59.9147 43.193C59.7787 43.545 59.7107 43.917 59.7107 44.309C59.7107 44.693 59.7787 45.065 59.9147 45.425C60.0587 45.777 60.2747 46.069 60.5627 46.301C60.8507 46.525 61.2067 46.637 61.6307 46.637C62.0547 46.637 62.4067 46.525 62.6867 46.301C62.9747 46.069 63.1867 45.777 63.3227 45.425C63.4667 45.065 63.5387 44.693 63.5387 44.309C63.5387 43.917 63.4667 43.545 63.3227 43.193C63.1867 42.841 62.9747 42.553 62.6867 42.329C62.4067 42.097 62.0547 41.981 61.6307 41.981ZM66.378 47.489V41.129H67.518V42.053H67.59C67.646 41.957 67.738 41.825 67.866 41.657C68.002 41.489 68.194 41.341 68.442 41.213C68.69 41.077 69.002 41.009 69.378 41.009C69.842 41.009 70.238 41.117 70.566 41.333C70.894 41.541 71.142 41.825 71.31 42.185C71.486 42.545 71.574 42.949 71.574 43.397V47.489H70.434V43.469C70.434 43.045 70.314 42.693 70.074 42.413C69.842 42.133 69.502 41.993 69.054 41.993C68.694 41.993 68.402 42.085 68.178 42.269C67.954 42.445 67.786 42.681 67.674 42.977C67.57 43.265 67.518 43.573 67.518 43.901V47.489H66.378ZM74.0009 39.917C73.7849 39.917 73.6049 39.845 73.4609 39.701C73.3249 39.557 73.2569 39.385 73.2569 39.185C73.2569 38.977 73.3249 38.801 73.4609 38.657C73.6049 38.513 73.7849 38.441 74.0009 38.441C74.2089 38.441 74.3849 38.513 74.5289 38.657C74.6729 38.801 74.7449 38.977 74.7449 39.185C74.7449 39.385 74.6729 39.557 74.5289 39.701C74.3849 39.845 74.2089 39.917 74.0009 39.917ZM73.4369 47.489V41.129H74.5769V47.489H73.4369ZM76.4209 47.489V41.129H77.5609V42.053H77.6329C77.6889 41.957 77.7809 41.825 77.9089 41.657C78.0449 41.489 78.2369 41.341 78.4849 41.213C78.7329 41.077 79.0449 41.009 79.4209 41.009C79.8849 41.009 80.2809 41.117 80.6089 41.333C80.9369 41.541 81.1849 41.825 81.3529 42.185C81.5289 42.545 81.6169 42.949 81.6169 43.397V47.489H80.4769V43.469C80.4769 43.045 80.3569 42.693 80.1169 42.413C79.8849 42.133 79.5449 41.993 79.0969 41.993C78.7369 41.993 78.4449 42.085 78.2209 42.269C77.9969 42.445 77.8289 42.681 77.7169 42.977C77.6129 43.265 77.5609 43.573 77.5609 43.901V47.489H76.4209ZM86.3598 50.009C85.8318 50.009 85.3918 49.937 85.0398 49.793C84.6878 49.657 84.4038 49.481 84.1878 49.265C83.9798 49.057 83.8238 48.849 83.7198 48.641C83.6158 48.433 83.5478 48.257 83.5158 48.113C83.4838 47.977 83.4678 47.909 83.4678 47.909H84.6078C84.6078 47.909 84.6278 47.965 84.6678 48.077C84.7078 48.189 84.7838 48.317 84.8958 48.461C85.0158 48.605 85.1918 48.733 85.4238 48.845C85.6558 48.957 85.9678 49.013 86.3598 49.013C86.8238 49.013 87.1878 48.921 87.4518 48.737C87.7158 48.561 87.9038 48.329 88.0158 48.041C88.1358 47.753 88.1958 47.449 88.1958 47.129V46.397H88.1358C88.0558 46.533 87.9278 46.689 87.7518 46.865C87.5838 47.033 87.3598 47.181 87.0798 47.309C86.7998 47.429 86.4558 47.489 86.0478 47.489C85.5678 47.489 85.1478 47.397 84.7878 47.213C84.4278 47.029 84.1278 46.781 83.8878 46.469C83.6558 46.157 83.4798 45.809 83.3598 45.425C83.2398 45.041 83.1798 44.649 83.1798 44.249C83.1798 43.849 83.2398 43.457 83.3598 43.073C83.4798 42.689 83.6558 42.341 83.8878 42.029C84.1278 41.717 84.4278 41.469 84.7878 41.285C85.1478 41.101 85.5678 41.009 86.0478 41.009C86.4558 41.009 86.7998 41.073 87.0798 41.201C87.3598 41.321 87.5838 41.465 87.7518 41.633C87.9278 41.801 88.0558 41.957 88.1358 42.101H88.1958V41.129H89.3358V47.117C89.3358 48.005 89.0758 48.709 88.5558 49.229C88.0438 49.749 87.3118 50.009 86.3598 50.009ZM86.2638 46.517C86.6878 46.517 87.0398 46.409 87.3198 46.193C87.6078 45.969 87.8198 45.685 87.9558 45.341C88.0998 44.997 88.1718 44.633 88.1718 44.249C88.1718 43.865 88.0998 43.501 87.9558 43.157C87.8198 42.805 87.6078 42.521 87.3198 42.305C87.0398 42.089 86.6878 41.981 86.2638 41.981C85.8398 41.981 85.4838 42.089 85.1958 42.305C84.9078 42.521 84.6918 42.805 84.5478 43.157C84.4118 43.501 84.3438 43.865 84.3438 44.249C84.3438 44.633 84.4118 44.997 84.5478 45.341C84.6918 45.685 84.9078 45.969 85.1958 46.193C85.4838 46.409 85.8398 46.517 86.2638 46.517ZM96.8724 47.609C96.3604 47.609 95.9204 47.545 95.5524 47.417C95.1924 47.281 94.8924 47.109 94.6524 46.901C94.4124 46.685 94.2204 46.461 94.0764 46.229C93.9324 45.997 93.8244 45.777 93.7524 45.569C93.6804 45.353 93.6324 45.181 93.6084 45.053C93.5924 44.917 93.5844 44.849 93.5844 44.849H94.7844C94.7844 44.849 94.7964 44.905 94.8204 45.017C94.8444 45.129 94.8924 45.269 94.9644 45.437C95.0444 45.605 95.1604 45.777 95.3124 45.953C95.4644 46.121 95.6684 46.261 95.9244 46.373C96.1804 46.485 96.5044 46.541 96.8964 46.541C97.4884 46.541 97.9564 46.401 98.3004 46.121C98.6444 45.833 98.8164 45.461 98.8164 45.005C98.8164 44.613 98.6844 44.309 98.4204 44.093C98.1644 43.877 97.7964 43.709 97.3164 43.589L96.1404 43.301C95.7244 43.197 95.3364 43.053 94.9764 42.869C94.6244 42.677 94.3404 42.429 94.1244 42.125C93.9164 41.813 93.8124 41.425 93.8124 40.961C93.8124 40.441 93.9404 39.997 94.1964 39.629C94.4524 39.261 94.8004 38.981 95.2404 38.789C95.6804 38.589 96.1804 38.489 96.7404 38.489C97.2844 38.489 97.7364 38.573 98.0964 38.741C98.4564 38.909 98.7444 39.117 98.9604 39.365C99.1764 39.605 99.3364 39.849 99.4404 40.097C99.5444 40.337 99.6124 40.541 99.6444 40.709C99.6764 40.877 99.6924 40.961 99.6924 40.961H98.5404C98.5404 40.961 98.5244 40.889 98.4924 40.745C98.4604 40.601 98.3844 40.437 98.2644 40.253C98.1444 40.061 97.9604 39.893 97.7124 39.749C97.4644 39.605 97.1284 39.533 96.7044 39.533C96.1284 39.533 95.6924 39.669 95.3964 39.941C95.1084 40.213 94.9644 40.525 94.9644 40.877C94.9644 41.197 95.0804 41.457 95.3124 41.657C95.5444 41.849 95.8644 41.997 96.2724 42.101L97.5444 42.413C98.0004 42.525 98.4124 42.689 98.7804 42.905C99.1484 43.113 99.4404 43.385 99.6564 43.721C99.8724 44.049 99.9804 44.453 99.9804 44.933C99.9804 45.413 99.8604 45.857 99.6204 46.265C99.3884 46.673 99.0404 47.001 98.5764 47.249C98.1204 47.489 97.5524 47.609 96.8724 47.609ZM104.286 47.609C103.766 47.609 103.314 47.517 102.93 47.333C102.554 47.141 102.242 46.885 101.994 46.565C101.754 46.245 101.574 45.893 101.454 45.509C101.334 45.117 101.274 44.717 101.274 44.309C101.274 43.909 101.33 43.513 101.442 43.121C101.562 42.729 101.742 42.373 101.982 42.053C102.23 41.733 102.538 41.481 102.906 41.297C103.282 41.105 103.726 41.009 104.238 41.009C104.782 41.009 105.262 41.133 105.678 41.381C106.094 41.629 106.422 41.997 106.662 42.485C106.902 42.973 107.022 43.585 107.022 44.321V44.657H102.426C102.45 45.017 102.534 45.349 102.678 45.653C102.83 45.949 103.042 46.189 103.314 46.373C103.586 46.549 103.91 46.637 104.286 46.637C104.614 46.637 104.878 46.585 105.078 46.481C105.286 46.369 105.45 46.241 105.57 46.097C105.69 45.953 105.77 45.829 105.81 45.725C105.858 45.613 105.882 45.557 105.882 45.557H106.95C106.95 45.557 106.93 45.629 106.89 45.773C106.85 45.909 106.778 46.077 106.674 46.277C106.57 46.477 106.418 46.681 106.218 46.889C106.018 47.089 105.762 47.261 105.45 47.405C105.138 47.541 104.75 47.609 104.286 47.609ZM102.438 43.769H105.906C105.89 43.353 105.802 43.017 105.642 42.761C105.482 42.497 105.278 42.301 105.03 42.173C104.782 42.045 104.518 41.981 104.238 41.981C103.734 41.981 103.322 42.145 103.002 42.473C102.682 42.793 102.494 43.225 102.438 43.769ZM108.577 47.489V41.129H109.717V41.921H109.765C109.901 41.681 110.101 41.469 110.365 41.285C110.629 41.101 111.001 41.009 111.481 41.009C111.617 41.009 111.741 41.017 111.853 41.033C111.965 41.041 112.021 41.045 112.021 41.045V42.137C112.021 42.137 111.957 42.133 111.829 42.125C111.709 42.109 111.581 42.101 111.445 42.101C110.893 42.101 110.465 42.261 110.161 42.581C109.865 42.893 109.717 43.405 109.717 44.117V47.489H108.577ZM115.28 47.489L112.856 41.129H114.044L115.904 46.097L117.728 41.129H118.928L116.492 47.489H115.28ZM120.934 39.917C120.718 39.917 120.538 39.845 120.394 39.701C120.258 39.557 120.19 39.385 120.19 39.185C120.19 38.977 120.258 38.801 120.394 38.657C120.538 38.513 120.718 38.441 120.934 38.441C121.142 38.441 121.318 38.513 121.462 38.657C121.606 38.801 121.678 38.977 121.678 39.185C121.678 39.385 121.606 39.557 121.462 39.701C121.318 39.845 121.142 39.917 120.934 39.917ZM120.37 47.489V41.129H121.51V47.489H120.37ZM126.367 47.609C125.847 47.609 125.391 47.517 124.999 47.333C124.607 47.141 124.279 46.889 124.015 46.577C123.759 46.257 123.563 45.901 123.427 45.509C123.299 45.117 123.235 44.717 123.235 44.309C123.235 43.901 123.299 43.505 123.427 43.121C123.555 42.729 123.747 42.373 124.003 42.053C124.267 41.733 124.595 41.481 124.987 41.297C125.379 41.105 125.839 41.009 126.367 41.009C126.879 41.009 127.303 41.085 127.639 41.237C127.975 41.389 128.243 41.581 128.443 41.813C128.651 42.037 128.803 42.265 128.899 42.497C129.003 42.721 129.071 42.909 129.103 43.061C129.135 43.213 129.151 43.289 129.151 43.289H128.047C128.047 43.289 128.027 43.225 127.987 43.097C127.947 42.961 127.871 42.809 127.759 42.641C127.647 42.473 127.479 42.325 127.255 42.197C127.031 42.061 126.735 41.993 126.367 41.993C125.927 41.993 125.555 42.105 125.251 42.329C124.955 42.545 124.731 42.829 124.579 43.181C124.435 43.533 124.363 43.909 124.363 44.309C124.363 44.709 124.435 45.085 124.579 45.437C124.731 45.789 124.955 46.077 125.251 46.301C125.555 46.517 125.927 46.625 126.367 46.625C126.735 46.625 127.031 46.561 127.255 46.433C127.479 46.297 127.647 46.145 127.759 45.977C127.871 45.809 127.947 45.661 127.987 45.533C128.027 45.397 128.047 45.329 128.047 45.329H129.151C129.151 45.329 129.135 45.405 129.103 45.557C129.071 45.709 129.003 45.901 128.899 46.133C128.803 46.357 128.651 46.585 128.443 46.817C128.243 47.041 127.975 47.229 127.639 47.381C127.303 47.533 126.879 47.609 126.367 47.609ZM133.606 47.609C133.086 47.609 132.634 47.517 132.25 47.333C131.874 47.141 131.562 46.885 131.314 46.565C131.074 46.245 130.894 45.893 130.774 45.509C130.654 45.117 130.594 44.717 130.594 44.309C130.594 43.909 130.65 43.513 130.762 43.121C130.882 42.729 131.062 42.373 131.302 42.053C131.55 41.733 131.858 41.481 132.226 41.297C132.602 41.105 133.046 41.009 133.558 41.009C134.102 41.009 134.582 41.133 134.998 41.381C135.414 41.629 135.742 41.997 135.982 42.485C136.222 42.973 136.342 43.585 136.342 44.321V44.657H131.746C131.77 45.017 131.854 45.349 131.998 45.653C132.15 45.949 132.362 46.189 132.634 46.373C132.906 46.549 133.23 46.637 133.606 46.637C133.934 46.637 134.198 46.585 134.398 46.481C134.606 46.369 134.77 46.241 134.89 46.097C135.01 45.953 135.09 45.829 135.13 45.725C135.178 45.613 135.202 45.557 135.202 45.557H136.27C136.27 45.557 136.25 45.629 136.21 45.773C136.17 45.909 136.098 46.077 135.994 46.277C135.89 46.477 135.738 46.681 135.538 46.889C135.338 47.089 135.082 47.261 134.77 47.405C134.458 47.541 134.07 47.609 133.606 47.609ZM131.758 43.769H135.226C135.21 43.353 135.122 43.017 134.962 42.761C134.802 42.497 134.598 42.301 134.35 42.173C134.102 42.045 133.838 41.981 133.558 41.981C133.054 41.981 132.642 42.145 132.322 42.473C132.002 42.793 131.814 43.225 131.758 43.769ZM140.225 47.609C139.737 47.609 139.333 47.541 139.013 47.405C138.701 47.269 138.453 47.101 138.269 46.901C138.085 46.693 137.949 46.489 137.861 46.289C137.773 46.081 137.717 45.909 137.693 45.773C137.669 45.637 137.657 45.569 137.657 45.569H138.809C138.809 45.569 138.821 45.625 138.845 45.737C138.877 45.841 138.937 45.965 139.025 46.109C139.121 46.245 139.265 46.369 139.457 46.481C139.657 46.585 139.921 46.637 140.249 46.637C140.625 46.637 140.917 46.549 141.125 46.373C141.333 46.189 141.437 45.965 141.437 45.701C141.437 45.469 141.353 45.285 141.185 45.149C141.025 45.013 140.793 44.909 140.489 44.837L139.625 44.633C139.305 44.553 139.005 44.445 138.725 44.309C138.445 44.173 138.217 43.989 138.041 43.757C137.873 43.517 137.789 43.221 137.789 42.869C137.789 42.325 137.993 41.881 138.401 41.537C138.809 41.185 139.341 41.009 139.997 41.009C140.437 41.009 140.801 41.073 141.089 41.201C141.377 41.321 141.605 41.473 141.773 41.657C141.949 41.841 142.077 42.025 142.157 42.209C142.245 42.393 142.301 42.549 142.325 42.677C142.349 42.797 142.361 42.857 142.361 42.857H141.257C141.257 42.857 141.245 42.813 141.221 42.725C141.197 42.629 141.141 42.525 141.053 42.413C140.973 42.293 140.849 42.189 140.681 42.101C140.513 42.005 140.289 41.957 140.009 41.957C139.625 41.957 139.345 42.045 139.169 42.221C138.993 42.397 138.905 42.589 138.905 42.797C138.905 42.997 138.985 43.161 139.145 43.289C139.313 43.409 139.529 43.501 139.793 43.565L140.669 43.769C141.213 43.897 141.661 44.109 142.013 44.405C142.373 44.693 142.553 45.109 142.553 45.653C142.553 46.005 142.461 46.333 142.277 46.637C142.093 46.933 141.829 47.169 141.485 47.345C141.141 47.521 140.721 47.609 140.225 47.609ZM149.769 47.609C149.249 47.609 148.793 47.517 148.401 47.333C148.009 47.141 147.681 46.889 147.417 46.577C147.161 46.257 146.965 45.901 146.829 45.509C146.701 45.117 146.637 44.717 146.637 44.309C146.637 43.901 146.701 43.505 146.829 43.121C146.957 42.729 147.149 42.373 147.405 42.053C147.669 41.733 147.997 41.481 148.389 41.297C148.781 41.105 149.241 41.009 149.769 41.009C150.281 41.009 150.705 41.085 151.041 41.237C151.377 41.389 151.645 41.581 151.845 41.813C152.053 42.037 152.205 42.265 152.301 42.497C152.405 42.721 152.473 42.909 152.505 43.061C152.537 43.213 152.553 43.289 152.553 43.289H151.449C151.449 43.289 151.429 43.225 151.389 43.097C151.349 42.961 151.273 42.809 151.161 42.641C151.049 42.473 150.881 42.325 150.657 42.197C150.433 42.061 150.137 41.993 149.769 41.993C149.329 41.993 148.957 42.105 148.653 42.329C148.357 42.545 148.133 42.829 147.981 43.181C147.837 43.533 147.765 43.909 147.765 44.309C147.765 44.709 147.837 45.085 147.981 45.437C148.133 45.789 148.357 46.077 148.653 46.301C148.957 46.517 149.329 46.625 149.769 46.625C150.137 46.625 150.433 46.561 150.657 46.433C150.881 46.297 151.049 46.145 151.161 45.977C151.273 45.809 151.349 45.661 151.389 45.533C151.429 45.397 151.449 45.329 151.449 45.329H152.553C152.553 45.329 152.537 45.405 152.505 45.557C152.473 45.709 152.405 45.901 152.301 46.133C152.205 46.357 152.053 46.585 151.845 46.817C151.645 47.041 151.377 47.229 151.041 47.381C150.705 47.533 150.281 47.609 149.769 47.609ZM157.128 47.609C156.448 47.609 155.876 47.453 155.412 47.141C154.948 46.821 154.596 46.409 154.356 45.905C154.116 45.401 153.996 44.869 153.996 44.309C153.996 43.741 154.116 43.209 154.356 42.713C154.596 42.209 154.948 41.801 155.412 41.489C155.876 41.169 156.448 41.009 157.128 41.009C157.808 41.009 158.38 41.169 158.844 41.489C159.308 41.801 159.66 42.209 159.9 42.713C160.14 43.209 160.26 43.741 160.26 44.309C160.26 44.869 160.14 45.401 159.9 45.905C159.66 46.409 159.308 46.821 158.844 47.141C158.38 47.453 157.808 47.609 157.128 47.609ZM157.128 46.613C157.56 46.613 157.92 46.505 158.208 46.289C158.504 46.065 158.724 45.777 158.868 45.425C159.02 45.073 159.096 44.701 159.096 44.309C159.096 43.909 159.02 43.537 158.868 43.193C158.724 42.841 158.504 42.557 158.208 42.341C157.92 42.117 157.56 42.005 157.128 42.005C156.704 42.005 156.344 42.117 156.048 42.341C155.752 42.557 155.528 42.841 155.376 43.193C155.232 43.537 155.16 43.909 155.16 44.309C155.16 44.701 155.232 45.073 155.376 45.425C155.528 45.777 155.752 46.065 156.048 46.289C156.344 46.505 156.704 46.613 157.128 46.613ZM161.815 47.489V41.129H162.955V42.053H163.003C163.067 41.933 163.167 41.793 163.303 41.633C163.439 41.465 163.623 41.321 163.855 41.201C164.095 41.073 164.395 41.009 164.755 41.009C165.227 41.009 165.623 41.125 165.943 41.357C166.271 41.581 166.515 41.885 166.675 42.269H166.687C166.863 41.917 167.111 41.621 167.431 41.381C167.759 41.133 168.183 41.009 168.703 41.009C169.391 41.009 169.919 41.245 170.287 41.717C170.663 42.181 170.851 42.781 170.851 43.517V47.489H169.711V43.577C169.711 43.105 169.599 42.725 169.375 42.437C169.151 42.141 168.827 41.993 168.403 41.993C168.035 41.993 167.739 42.093 167.515 42.293C167.299 42.493 167.143 42.741 167.047 43.037C166.951 43.333 166.903 43.629 166.903 43.925V47.489H165.763V43.577C165.763 43.105 165.651 42.725 165.427 42.437C165.211 42.141 164.887 41.993 164.455 41.993C164.087 41.993 163.791 42.093 163.567 42.293C163.351 42.493 163.195 42.745 163.099 43.049C163.003 43.345 162.955 43.637 162.955 43.925V47.489H161.815ZM172.646 49.841V41.129H173.786V42.137H173.858C173.954 41.985 174.082 41.821 174.242 41.645C174.41 41.469 174.63 41.321 174.902 41.201C175.174 41.073 175.51 41.009 175.91 41.009C176.39 41.009 176.81 41.105 177.17 41.297C177.53 41.481 177.83 41.733 178.07 42.053C178.31 42.365 178.49 42.717 178.61 43.109C178.73 43.501 178.79 43.901 178.79 44.309C178.79 44.717 178.73 45.117 178.61 45.509C178.49 45.901 178.31 46.257 178.07 46.577C177.83 46.889 177.53 47.141 177.17 47.333C176.81 47.517 176.39 47.609 175.91 47.609C175.51 47.609 175.174 47.545 174.902 47.417C174.63 47.289 174.41 47.137 174.242 46.961C174.082 46.785 173.954 46.625 173.858 46.481H173.786V49.841H172.646ZM173.81 44.309C173.81 44.693 173.878 45.065 174.014 45.425C174.158 45.777 174.37 46.069 174.65 46.301C174.938 46.525 175.294 46.637 175.718 46.637C176.15 46.637 176.506 46.525 176.786 46.301C177.074 46.069 177.286 45.777 177.422 45.425C177.566 45.065 177.638 44.693 177.638 44.309C177.638 43.917 177.566 43.545 177.422 43.193C177.286 42.841 177.074 42.553 176.786 42.329C176.506 42.097 176.15 41.981 175.718 41.981C175.294 41.981 174.938 42.097 174.65 42.329C174.37 42.553 174.158 42.841 174.014 43.193C173.878 43.545 173.81 43.917 173.81 44.309ZM183.056 41.009C183.456 41.009 183.792 41.073 184.064 41.201C184.336 41.329 184.556 41.481 184.724 41.657C184.892 41.825 185.02 41.985 185.108 42.137H185.18V41.129H186.32V47.489H185.18V46.481H185.108C185.02 46.633 184.892 46.797 184.724 46.973C184.556 47.149 184.336 47.301 184.064 47.429C183.792 47.549 183.456 47.609 183.056 47.609C182.576 47.609 182.156 47.517 181.796 47.333C181.436 47.141 181.136 46.889 180.896 46.577C180.656 46.257 180.476 45.901 180.356 45.509C180.236 45.117 180.176 44.717 180.176 44.309C180.176 43.901 180.236 43.501 180.356 43.109C180.476 42.717 180.656 42.365 180.896 42.053C181.136 41.733 181.436 41.481 181.796 41.297C182.156 41.105 182.576 41.009 183.056 41.009ZM183.248 41.981C182.824 41.981 182.468 42.097 182.18 42.329C181.892 42.553 181.676 42.841 181.532 43.193C181.396 43.545 181.328 43.917 181.328 44.309C181.328 44.693 181.396 45.065 181.532 45.425C181.676 45.777 181.892 46.069 182.18 46.301C182.468 46.525 182.824 46.637 183.248 46.637C183.672 46.637 184.024 46.525 184.304 46.301C184.592 46.069 184.804 45.777 184.94 45.425C185.084 45.065 185.156 44.693 185.156 44.309C185.156 43.917 185.084 43.545 184.94 43.193C184.804 42.841 184.592 42.553 184.304 42.329C184.024 42.097 183.672 41.981 183.248 41.981ZM187.995 47.489V41.129H189.135V42.053H189.207C189.263 41.957 189.355 41.825 189.483 41.657C189.619 41.489 189.811 41.341 190.059 41.213C190.307 41.077 190.619 41.009 190.995 41.009C191.459 41.009 191.855 41.117 192.183 41.333C192.511 41.541 192.759 41.825 192.927 42.185C193.103 42.545 193.191 42.949 193.191 43.397V47.489H192.051V43.469C192.051 43.045 191.931 42.693 191.691 42.413C191.459 42.133 191.119 41.993 190.671 41.993C190.311 41.993 190.019 42.085 189.795 42.269C189.571 42.445 189.403 42.681 189.291 42.977C189.187 43.265 189.135 43.573 189.135 43.901V47.489H187.995ZM194.751 49.829C194.567 49.829 194.411 49.821 194.283 49.805C194.155 49.789 194.091 49.781 194.091 49.781V48.809C194.091 48.809 194.155 48.813 194.283 48.821C194.419 48.837 194.563 48.845 194.715 48.845C195.187 48.845 195.571 48.745 195.867 48.545C196.171 48.353 196.427 48.033 196.635 47.585L194.175 41.129H195.363L197.199 46.097L199.047 41.129H200.247L197.787 47.501C197.475 48.301 197.071 48.889 196.575 49.265C196.087 49.641 195.479 49.829 194.751 49.829Z" fill="#4D4D4D"/>
</svg>
